HIERARCHY
ROOT hip
{
	OFFSET 0.000000 0.000000 0.000000 
	CHANNELS 6 Xposition Yposition Zposition Xrotation Zrotation Yrotation
	JOINT abdomen
	{
		OFFSET 0.000000 3.402643 0.000000 
		CHANNELS 3 Xrotation Zrotation Yrotation
		JOINT chest
		{
			OFFSET 0.000000 8.438565 -0.680529 
			CHANNELS 3 Xrotation Zrotation Yrotation
			JOINT neck
			{
				OFFSET 0.000000 10.207942 -0.272212 
				CHANNELS 3 Xrotation Zrotation Yrotation
				JOINT head
				{
					OFFSET 0.000000 3.130431 0.000000 
					CHANNELS 3 Xrotation Zrotation Yrotation
					End Site
					{
						OFFSET 0.000000 3.130435 0.000000 
					}
				}
			}
			JOINT lCollar
			{
				OFFSET 3.470700 6.669187 -0.816635 
				CHANNELS 3 Yrotation Zrotation Xrotation
				JOINT lShldr
				{
					OFFSET 3.198488 0.000000 0.000000 
					CHANNELS 3 Zrotation Yrotation Xrotation
					JOINT lForeArm
					{
						OFFSET 10.139888 0.000000 0.000000 
						CHANNELS 3 Yrotation Zrotation Xrotation
						JOINT lHand
						{
							OFFSET 8.370511 0.000000 0.000000 
							CHANNELS 3 Zrotation Yrotation Xrotation
							End Site
							{
								OFFSET 4.083176 0.000000 0.000000 
							}
						}
					}
				}
			}
			JOINT rCollar
			{
				OFFSET -3.470700 6.669187 -0.816635 
				CHANNELS 3 Yrotation Zrotation Xrotation
				JOINT rShldr
				{
					OFFSET -3.198488 0.000000 0.000000 
					CHANNELS 3 Zrotation Yrotation Xrotation
					JOINT rForeArm
					{
						OFFSET -10.139888 0.000000 0.000000 
						CHANNELS 3 Yrotation Zrotation Xrotation
						JOINT rHand
						{
							OFFSET -8.370511 0.000000 0.000000 
							CHANNELS 3 Zrotation Yrotation Xrotation
							End Site
							{
								OFFSET -4.083176 0.000000 0.000000 
							}
						}
					}
				}
			}
		}
	}
	JOINT lThigh
	{
		OFFSET 5.308129 -1.633274 1.361059 
		CHANNELS 3 Xrotation Zrotation Yrotation
		JOINT lShin
		{
			OFFSET -2.041588 -20.007561 0.000000 
			CHANNELS 3 Xrotation Zrotation Yrotation
			JOINT lFoot
			{
				OFFSET 0.000000 -19.190928 -1.224953 
				CHANNELS 3 Xrotation Yrotation Zrotation
				End Site
				{
					OFFSET 0.000000 -2.449906 4.627600 
				}
			}
		}
	}
	JOINT rThigh
	{
		OFFSET -5.308129 -1.633274 1.361059 
		CHANNELS 3 Xrotation Zrotation Yrotation
		JOINT rShin
		{
			OFFSET 2.041588 -20.007561 0.000000 
			CHANNELS 3 Xrotation Zrotation Yrotation
			JOINT rFoot
			{
				OFFSET 0.000000 -19.190928 -1.224953 
				CHANNELS 3 Xrotation Yrotation Zrotation
				End Site
				{
					OFFSET 0.000000 -2.449906 4.627600 
				}
			}
		}
	}
}
MOTION
Frames: 6
Frame Time: 0.033333
0.672718 47.353802 0.672718 -7.288208 5.385896 -1.751965 32.225491 6.217312 -18.203480 -9.585949 2.619180 9.590061 -26.025391 -0.008831 0.004298 14.899890 7.599965 -0.453317 2.000000 -2.000000 0.000000 -51.602730 -43.288021 23.855640 -37.716484 -0.655092 8.476560 -20.059679 -8.431367 -71.531380 -2.000000 2.000000 0.000000 62.105148 16.099215 35.638760 65.071892 0.523421 8.724285 7.474522 -23.633783 -67.097252 -32.215725 10.966225 -0.217043 39.042400 -0.802926 -2.969874 -7.232869 -2.951423 -4.632460 -6.245856 -13.108232 3.812501 45.035435 0.461733 3.218029 -35.276226 -3.683026 6.558299 
0.732821 50.158634 0.732821 -12.072162 7.994625 -6.420500 20.738291 9.043547 -8.584029 -21.534773 5.901233 27.307297 -38.603516 -0.007688 0.006105 33.658630 -8.279567 -14.088321 2.000000 -2.000000 0.000000 -65.078644 20.701897 42.010654 -45.366989 -0.607255 8.542960 -0.867602 12.638658 -17.863743 -2.000000 2.000000 0.000000 40.166756 -62.196476 30.336828 84.326889 0.506196 8.924382 1.318888 -17.122452 -42.359261 -24.206438 14.197783 0.858292 23.787434 -1.449883 -2.059244 -0.144464 -4.753027 -3.825649 -5.154954 -17.399565 3.967677 30.547003 1.156969 2.470427 -18.579697 2.152219 7.665743 
-2.908392 48.090137 -2.908392 -15.225016 10.759288 -11.717515 17.961109 5.820535 -11.445510 2.651470 -4.178840 35.638508 -24.033203 -0.008975 0.003990 21.986217 -3.343366 -13.416686 2.000000 -2.000000 0.000000 -71.014320 -23.361555 33.829151 -14.387527 -0.842397 8.327254 -0.867602 12.638658 -17.863743 -2.000000 2.000000 0.000000 69.896729 -32.042866 -7.094658 84.326889 0.506196 8.924382 1.318888 -17.122452 -42.359261 -30.093271 19.518709 0.770793 23.787434 -1.449878 -2.059243 5.080681 -8.165892 -3.390810 -17.098022 -15.702016 6.418828 50.281956 0.158445 3.457458 -23.624987 7.567220 2.323593 
-4.796628 47.273670 -4.796629 -8.791046 16.917170 -18.953405 33.017952 13.459799 -7.608908 20.373573 0.482137 35.573830 -24.033203 -0.008975 0.003990 28.474346 -13.037516 -21.680925 2.000000 -2.000000 0.000000 -73.021645 -34.725147 -16.986002 -15.379650 -0.837120 8.333188 -0.867602 12.638658 -17.863743 -2.000000 2.000000 0.000000 46.056377 -26.796741 -3.092428 84.326889 0.506196 8.924382 1.318888 -17.122452 -42.359261 -33.377304 21.659122 3.482132 26.242832 -1.362531 -2.238044 6.721157 -8.984635 -3.219823 -27.648764 -17.594751 10.264209 55.771263 -0.166149 3.654484 -28.693781 13.590781 0.462280 
-6.499529 43.427086 -6.499529 -5.854273 22.448586 -26.781765 27.948822 16.898378 -7.310552 7.026319 9.328263 35.829132 -24.033203 -0.008975 0.003990 70.588821 2.592066 -15.439644 2.000000 -2.000000 0.000000 -60.217972 -24.943478 -12.338025 -21.328598 -0.782499 8.368129 -0.867602 12.638658 -17.863743 -2.000000 2.000000 0.000000 34.687515 -41.868515 15.789794 68.337875 0.515188 8.761302 1.318888 -17.122452 -42.359261 -36.189831 23.172615 7.683229 29.978151 -1.217166 -2.465888 7.442967 -8.803809 -2.907407 -53.389622 -10.713304 13.230581 71.274086 -1.197578 4.085429 -24.179895 22.744629 -6.629545 
-7.361007 44.148426 -7.361007 -3.122254 28.162350 -34.606457 27.921181 16.725824 -7.403800 6.668087 8.689219 35.772697 -24.033203 -0.008975 0.003990 54.010235 -5.108659 -19.148026 2.000000 -2.000000 0.000000 -72.016487 -25.489777 -2.000056 -26.771004 -0.731983 8.395494 -0.867602 12.638658 -17.863743 -2.000000 2.000000 0.000000 36.560936 -39.496372 15.082883 57.453934 0.546145 8.651089 1.318888 -17.122452 -42.359261 -38.846886 24.755133 12.190206 33.965160 -1.037035 -2.689843 7.989973 -8.271418 -2.232080 -60.636822 -8.770442 13.495352 68.117279 -0.981985 4.023145 -19.760056 32.444218 -11.170338 
